<svg width="209" height="65" viewBox="0 0 209 65" fill="none" xmlns="http://www.w3.org/2000/svg">
<path fill-rule="evenodd" clip-rule="evenodd" d="M42.0896 -101.229C39.9532 -91.6506 32.8922 -85.8494 22.3369 -85.8494C9.73582 -85.8494 0.538452 -94.3615 0.538452 -107.518C0.538452 -120.855 9.73583 -130.434 21.9386 -130.434C35.4088 -130.434 42.2887 -120.855 42.2887 -109.343V-106.163H8.5771C8.95731 -97.9398 14.8777 -92.1386 22.4275 -92.1386C29.5066 -92.1386 33.6707 -95.5181 35.4088 -102.006L42.0896 -101.229ZM208.095 -101.229C205.959 -91.6506 198.898 -85.8494 188.342 -85.8494C175.741 -85.8494 166.544 -94.3615 166.544 -107.518C166.544 -120.855 175.741 -130.434 187.944 -130.434C201.414 -130.434 208.294 -120.855 208.294 -109.343V-106.163H174.582C174.963 -97.9398 180.883 -92.1386 188.433 -92.1386C195.494 -92.1386 199.676 -95.5181 201.414 -102.006L208.095 -101.229ZM200.056 -111.367C199.767 -118.145 195.983 -124.325 187.944 -124.325C180.286 -124.325 175.741 -118.343 174.763 -111.367H200.056ZM157.057 -95.8073C155.119 -90.5844 149.797 -85.8494 141.848 -85.8494C129.265 -85.8494 122.476 -95.6085 122.476 -108.096C122.476 -120.566 129.265 -130.416 141.848 -130.416C149.797 -130.416 155.119 -125.59 157.057 -120.367V-147.928H165.095V-87.006H157.057V-95.8073ZM157.165 -109.343C157.165 -118.542 151.354 -123.946 143.695 -123.946C135.367 -123.946 130.714 -117.765 130.714 -108.096C130.714 -98.4277 135.367 -92.2289 143.695 -92.2289C151.354 -92.2289 157.165 -97.6506 157.165 -106.94V-109.343ZM119.199 -95.3193C119.199 -93.0964 120.448 -92.0301 122.494 -92.0301C123.454 -92.0301 125.011 -92.3193 126.169 -92.988V-88.6506C124.721 -87.1868 122.965 -86.1386 119.67 -86.1386C115.325 -86.1386 112.21 -89.4097 111.74 -94.4518C109.404 -89.5181 103.411 -85.8494 96.5315 -85.8494C88.2937 -85.8494 82.9708 -90.2952 82.9708 -97.5422C82.9708 -105.566 89.8507 -108.855 100.008 -110.88L111.45 -113.211V-114.837C111.45 -120.639 108.046 -124.217 102.144 -124.217C96.0427 -124.217 92.7475 -120.639 91.4983 -115.723L84.3287 -116.681C85.9763 -124.614 92.2587 -130.416 102.235 -130.416C112.898 -130.416 119.199 -124.994 119.199 -114.259V-95.3193ZM111.45 -107.898L101.945 -105.855C95.2641 -104.41 91.0095 -103.163 91.0095 -98.0301C91.0095 -94.4518 93.4355 -91.741 98.2696 -91.741C105.729 -91.741 111.45 -97.3615 111.45 -105.855V-107.898ZM51.8844 -87.0241H43.8458V-129.277H51.8844V-121.723C53.9122 -126.855 59.6334 -130.434 65.9158 -130.434C76.9599 -130.434 81.4138 -123.078 81.4138 -113.229V-87.0241H73.3751V-112.542C73.3751 -119.608 69.9895 -124.054 63.3087 -124.054C56.9176 -124.054 51.8844 -119.03 51.8844 -111.295V-87.0241ZM34.069 -111.386C33.7612 -118.145 29.9954 -124.343 21.9567 -124.343C14.2983 -124.343 9.75393 -118.343 8.77626 -111.386H34.069ZM42.1077 49.2409C39.9713 58.8012 32.9103 64.6024 22.3551 64.6024C9.75393 64.6024 0.556558 56.1084 0.556558 42.9518C0.556558 29.6144 9.75393 20.0361 21.9567 20.0361C35.4269 20.0361 42.3068 29.6144 42.3068 41.1084V44.3072H8.59521C8.99352 52.5301 14.8958 58.3313 22.4456 58.3313C29.5247 58.3313 33.6888 54.9337 35.4269 48.4638L42.1077 49.2409ZM208.113 49.2409C205.977 58.8192 198.916 64.6205 188.36 64.6205C175.759 64.6205 166.562 56.1084 166.562 42.9518C166.562 29.6144 175.759 20.0361 187.962 20.0361C201.432 20.0361 208.312 29.6144 208.312 41.1265V44.3072H174.601C174.981 52.5301 180.901 58.3313 188.451 58.3313C195.53 58.3313 199.694 54.9518 201.432 48.4638L208.113 49.2409ZM200.074 39.1024C199.785 32.3253 196.001 26.1445 187.962 26.1445C180.322 26.1445 175.759 32.1265 174.8 39.1024H200.074ZM157.057 54.6626C155.119 59.8855 149.797 64.6205 141.867 64.6205C129.265 64.6205 122.494 54.8614 122.494 42.3735C122.494 29.9036 129.265 20.0542 141.867 20.0542C149.797 20.0542 155.119 24.8795 157.057 30.1024V2.54214H165.095V63.4638H157.057V54.6626ZM157.165 41.1265C157.165 31.9277 151.354 26.5241 143.695 26.5241C135.367 26.5241 130.714 32.7048 130.714 42.3735C130.714 52.0421 135.367 58.241 143.695 58.241C151.354 58.241 157.165 52.8193 157.165 43.5301V41.1265ZM119.199 55.1506C119.199 57.3735 120.448 58.4397 122.494 58.4397C123.454 58.4397 125.011 58.1506 126.169 57.4819V61.8192C124.721 63.265 122.965 64.3313 119.688 64.3313C115.325 64.3313 112.229 61.0421 111.74 56.0181C109.404 60.9518 103.411 64.6205 96.5315 64.6205C88.2937 64.6205 82.9708 60.1747 82.9708 52.9277C82.9708 44.9036 89.8507 41.6144 100.026 39.5903L111.45 37.259V35.6144C111.45 29.8132 108.064 26.253 102.144 26.253C96.0427 26.253 92.7475 29.8132 91.4983 34.747L84.3287 33.7891C85.9763 25.8554 92.2768 20.0542 102.253 20.0542C112.898 20.0542 119.199 25.4759 119.199 36.2108V55.1506ZM111.45 42.5723L101.963 44.5964C95.2642 46.0602 91.0095 47.3072 91.0095 52.4397C91.0095 56.018 93.4355 58.7108 98.2696 58.7108C105.729 58.7108 111.45 53.1084 111.45 44.5964V42.5723ZM51.8844 63.4638H43.8458V21.2108H51.8844V28.747C53.9122 23.6325 59.6334 20.0542 65.9339 20.0542C76.9599 20.0542 81.4319 27.4096 81.4319 37.259V63.4638H73.3932V37.9458C73.3932 30.8795 69.9895 26.4337 63.3087 26.4337C56.9176 26.4337 51.8844 31.4578 51.8844 39.1927V63.4638ZM34.069 39.1024C33.7794 32.3433 29.9954 26.1445 21.9567 26.1445C14.2983 26.1445 9.75393 32.1446 8.77626 39.1024H34.069Z" fill="#094B8E"/>
</svg>
